<mxfile host="app.diagrams.net" modified="2021-04-07T11:16:39.814Z" agent="5.0 (Macintosh; Intel Mac OS X 11_2_3) AppleWebKit/537.36 (KHTML, like Gecko) Chrome/89.0.4389.90 Safari/537.36" etag="-7ol6DYFALqbWbErsaFx" version="14.5.8" type="github">
  <diagram id="R2lEEEUBdFMjLlhIrx00" name="Page-1">
    <mxGraphModel dx="2201" dy="877" grid="1" gridSize="10" guides="1" tooltips="1" connect="1" arrows="1" fold="1" page="1" pageScale="1" pageWidth="850" pageHeight="1100" math="0" shadow="0" extFonts="Permanent Marker^https://fonts.googleapis.com/css?family=Permanent+Marker">
      <root>
        <mxCell id="0" />
        <mxCell id="1" parent="0" />
        <mxCell id="YHU3ZZGH8ts_Poxd3veD-13" value="Spas_Brands" style="shape=table;startSize=30;container=1;collapsible=1;childLayout=tableLayout;fixedRows=1;rowLines=0;fontStyle=1;align=center;resizeLast=1;" vertex="1" parent="1">
          <mxGeometry x="20" y="100" width="250" height="140" as="geometry" />
        </mxCell>
        <mxCell id="YHU3ZZGH8ts_Poxd3veD-14" value="" style="shape=partialRectangle;collapsible=0;dropTarget=0;pointerEvents=0;fillColor=none;points=[[0,0.5],[1,0.5]];portConstraint=eastwest;top=0;left=0;right=0;bottom=1;" vertex="1" parent="YHU3ZZGH8ts_Poxd3veD-13">
          <mxGeometry y="30" width="250" height="50" as="geometry" />
        </mxCell>
        <mxCell id="YHU3ZZGH8ts_Poxd3veD-15" value="PK,FK1&#xa;PK,FK2" style="shape=partialRectangle;overflow=hidden;connectable=0;fillColor=none;top=0;left=0;bottom=0;right=0;fontStyle=1;" vertex="1" parent="YHU3ZZGH8ts_Poxd3veD-14">
          <mxGeometry width="60" height="50" as="geometry" />
        </mxCell>
        <mxCell id="YHU3ZZGH8ts_Poxd3veD-16" value="Brand_name&#xa;Manufacturer_code" style="shape=partialRectangle;overflow=hidden;connectable=0;fillColor=none;top=0;left=0;bottom=0;right=0;align=left;spacingLeft=6;fontStyle=5;" vertex="1" parent="YHU3ZZGH8ts_Poxd3veD-14">
          <mxGeometry x="60" width="190" height="50" as="geometry" />
        </mxCell>
        <mxCell id="YHU3ZZGH8ts_Poxd3veD-17" value="" style="shape=partialRectangle;collapsible=0;dropTarget=0;pointerEvents=0;fillColor=none;points=[[0,0.5],[1,0.5]];portConstraint=eastwest;top=0;left=0;right=0;bottom=0;" vertex="1" parent="YHU3ZZGH8ts_Poxd3veD-13">
          <mxGeometry y="80" width="250" height="30" as="geometry" />
        </mxCell>
        <mxCell id="YHU3ZZGH8ts_Poxd3veD-18" value="" style="shape=partialRectangle;overflow=hidden;connectable=0;fillColor=none;top=0;left=0;bottom=0;right=0;" vertex="1" parent="YHU3ZZGH8ts_Poxd3veD-17">
          <mxGeometry width="60" height="30" as="geometry" />
        </mxCell>
        <mxCell id="YHU3ZZGH8ts_Poxd3veD-19" value="brand level" style="shape=partialRectangle;overflow=hidden;connectable=0;fillColor=none;top=0;left=0;bottom=0;right=0;align=left;spacingLeft=6;" vertex="1" parent="YHU3ZZGH8ts_Poxd3veD-17">
          <mxGeometry x="60" width="190" height="30" as="geometry" />
        </mxCell>
        <mxCell id="YHU3ZZGH8ts_Poxd3veD-20" value="" style="shape=partialRectangle;collapsible=0;dropTarget=0;pointerEvents=0;fillColor=none;points=[[0,0.5],[1,0.5]];portConstraint=eastwest;top=0;left=0;right=0;bottom=0;" vertex="1" parent="YHU3ZZGH8ts_Poxd3veD-13">
          <mxGeometry y="110" width="250" height="30" as="geometry" />
        </mxCell>
        <mxCell id="YHU3ZZGH8ts_Poxd3veD-21" value="" style="shape=partialRectangle;overflow=hidden;connectable=0;fillColor=none;top=0;left=0;bottom=0;right=0;" vertex="1" parent="YHU3ZZGH8ts_Poxd3veD-20">
          <mxGeometry width="60" height="30" as="geometry" />
        </mxCell>
        <mxCell id="YHU3ZZGH8ts_Poxd3veD-22" value="" style="shape=partialRectangle;overflow=hidden;connectable=0;fillColor=none;top=0;left=0;bottom=0;right=0;align=left;spacingLeft=6;" vertex="1" parent="YHU3ZZGH8ts_Poxd3veD-20">
          <mxGeometry x="60" width="190" height="30" as="geometry" />
        </mxCell>
        <mxCell id="YHU3ZZGH8ts_Poxd3veD-56" value="" style="group" vertex="1" connectable="0" parent="1">
          <mxGeometry x="20" y="370" width="250" height="360" as="geometry" />
        </mxCell>
        <mxCell id="YHU3ZZGH8ts_Poxd3veD-34" value="Models" style="shape=table;startSize=30;container=1;collapsible=1;childLayout=tableLayout;fixedRows=1;rowLines=0;fontStyle=1;align=center;resizeLast=1;shadow=1;" vertex="1" parent="YHU3ZZGH8ts_Poxd3veD-56">
          <mxGeometry width="250" height="360" as="geometry" />
        </mxCell>
        <mxCell id="YHU3ZZGH8ts_Poxd3veD-35" value="" style="shape=partialRectangle;collapsible=0;dropTarget=0;pointerEvents=0;fillColor=none;points=[[0,0.5],[1,0.5]];portConstraint=eastwest;top=0;left=0;right=0;bottom=1;" vertex="1" parent="YHU3ZZGH8ts_Poxd3veD-34">
          <mxGeometry y="30" width="250" height="50" as="geometry" />
        </mxCell>
        <mxCell id="YHU3ZZGH8ts_Poxd3veD-36" value="PK" style="shape=partialRectangle;overflow=hidden;connectable=0;fillColor=none;top=0;left=0;bottom=0;right=0;fontStyle=1;" vertex="1" parent="YHU3ZZGH8ts_Poxd3veD-35">
          <mxGeometry width="40" height="50" as="geometry" />
        </mxCell>
        <mxCell id="YHU3ZZGH8ts_Poxd3veD-37" value="model_number" style="shape=partialRectangle;overflow=hidden;connectable=0;fillColor=none;top=0;left=0;bottom=0;right=0;align=left;spacingLeft=6;fontStyle=5;" vertex="1" parent="YHU3ZZGH8ts_Poxd3veD-35">
          <mxGeometry x="40" width="210" height="50" as="geometry" />
        </mxCell>
        <mxCell id="YHU3ZZGH8ts_Poxd3veD-38" value="" style="shape=partialRectangle;collapsible=0;dropTarget=0;pointerEvents=0;fillColor=none;points=[[0,0.5],[1,0.5]];portConstraint=eastwest;top=0;left=0;right=0;bottom=0;" vertex="1" parent="YHU3ZZGH8ts_Poxd3veD-34">
          <mxGeometry y="80" width="250" height="30" as="geometry" />
        </mxCell>
        <mxCell id="YHU3ZZGH8ts_Poxd3veD-39" value="FK1" style="shape=partialRectangle;overflow=hidden;connectable=0;fillColor=none;top=0;left=0;bottom=0;right=0;" vertex="1" parent="YHU3ZZGH8ts_Poxd3veD-38">
          <mxGeometry width="40" height="30" as="geometry" />
        </mxCell>
        <mxCell id="YHU3ZZGH8ts_Poxd3veD-40" value="Brand_name" style="shape=partialRectangle;overflow=hidden;connectable=0;fillColor=none;top=0;left=0;bottom=0;right=0;align=left;spacingLeft=6;" vertex="1" parent="YHU3ZZGH8ts_Poxd3veD-38">
          <mxGeometry x="40" width="210" height="30" as="geometry" />
        </mxCell>
        <mxCell id="YHU3ZZGH8ts_Poxd3veD-41" value="" style="shape=partialRectangle;collapsible=0;dropTarget=0;pointerEvents=0;fillColor=none;points=[[0,0.5],[1,0.5]];portConstraint=eastwest;top=0;left=0;right=0;bottom=0;" vertex="1" parent="YHU3ZZGH8ts_Poxd3veD-34">
          <mxGeometry y="110" width="250" height="30" as="geometry" />
        </mxCell>
        <mxCell id="YHU3ZZGH8ts_Poxd3veD-42" value="" style="shape=partialRectangle;overflow=hidden;connectable=0;fillColor=none;top=0;left=0;bottom=0;right=0;" vertex="1" parent="YHU3ZZGH8ts_Poxd3veD-41">
          <mxGeometry width="40" height="30" as="geometry" />
        </mxCell>
        <mxCell id="YHU3ZZGH8ts_Poxd3veD-43" value="number_of_jets" style="shape=partialRectangle;overflow=hidden;connectable=0;fillColor=none;top=0;left=0;bottom=0;right=0;align=left;spacingLeft=6;" vertex="1" parent="YHU3ZZGH8ts_Poxd3veD-41">
          <mxGeometry x="40" width="210" height="30" as="geometry" />
        </mxCell>
        <mxCell id="YHU3ZZGH8ts_Poxd3veD-49" value="number_of_motors" style="shape=partialRectangle;overflow=hidden;connectable=0;fillColor=none;top=0;left=0;bottom=0;right=0;align=left;spacingLeft=6;" vertex="1" parent="YHU3ZZGH8ts_Poxd3veD-56">
          <mxGeometry x="40" y="140" width="210" height="30" as="geometry" />
        </mxCell>
        <mxCell id="YHU3ZZGH8ts_Poxd3veD-50" value="number_of_hors" style="shape=partialRectangle;overflow=hidden;connectable=0;fillColor=none;top=0;left=0;bottom=0;right=0;align=left;spacingLeft=6;" vertex="1" parent="YHU3ZZGH8ts_Poxd3veD-56">
          <mxGeometry x="40" y="170" width="210" height="30" as="geometry" />
        </mxCell>
        <mxCell id="YHU3ZZGH8ts_Poxd3veD-51" value="suggested_retail_price" style="shape=partialRectangle;overflow=hidden;connectable=0;fillColor=none;top=0;left=0;bottom=0;right=0;align=left;spacingLeft=6;" vertex="1" parent="YHU3ZZGH8ts_Poxd3veD-56">
          <mxGeometry x="40" y="200" width="210" height="30" as="geometry" />
        </mxCell>
        <mxCell id="YHU3ZZGH8ts_Poxd3veD-52" value="HW_retail_price" style="shape=partialRectangle;overflow=hidden;connectable=0;fillColor=none;top=0;left=0;bottom=0;right=0;align=left;spacingLeft=6;" vertex="1" parent="YHU3ZZGH8ts_Poxd3veD-56">
          <mxGeometry x="40" y="230" width="210" height="30" as="geometry" />
        </mxCell>
        <mxCell id="YHU3ZZGH8ts_Poxd3veD-53" value="dry_weight" style="shape=partialRectangle;overflow=hidden;connectable=0;fillColor=none;top=0;left=0;bottom=0;right=0;align=left;spacingLeft=6;" vertex="1" parent="YHU3ZZGH8ts_Poxd3veD-56">
          <mxGeometry x="40" y="260" width="210" height="30" as="geometry" />
        </mxCell>
        <mxCell id="YHU3ZZGH8ts_Poxd3veD-54" value="water_capacity" style="shape=partialRectangle;overflow=hidden;connectable=0;fillColor=none;top=0;left=0;bottom=0;right=0;align=left;spacingLeft=6;" vertex="1" parent="YHU3ZZGH8ts_Poxd3veD-56">
          <mxGeometry x="40" y="290" width="210" height="30" as="geometry" />
        </mxCell>
        <mxCell id="YHU3ZZGH8ts_Poxd3veD-55" value="seating_capacity" style="shape=partialRectangle;overflow=hidden;connectable=0;fillColor=none;top=0;left=0;bottom=0;right=0;align=left;spacingLeft=6;" vertex="1" parent="YHU3ZZGH8ts_Poxd3veD-56">
          <mxGeometry x="40" y="320" width="210" height="30" as="geometry" />
        </mxCell>
        <mxCell id="YHU3ZZGH8ts_Poxd3veD-57" value="" style="group" vertex="1" connectable="0" parent="1">
          <mxGeometry x="100" y="310" width="40" height="20" as="geometry" />
        </mxCell>
        <mxCell id="YHU3ZZGH8ts_Poxd3veD-32" style="edgeStyle=orthogonalEdgeStyle;rounded=0;orthogonalLoop=1;jettySize=auto;html=1;endArrow=ERoneToMany;endFill=0;entryX=0;entryY=0.5;entryDx=0;entryDy=0;startArrow=ERone;startFill=0;" edge="1" parent="YHU3ZZGH8ts_Poxd3veD-57" source="YHU3ZZGH8ts_Poxd3veD-13" target="YHU3ZZGH8ts_Poxd3veD-38">
          <mxGeometry relative="1" as="geometry">
            <mxPoint x="45" y="59.999999999999886" as="targetPoint" />
          </mxGeometry>
        </mxCell>
        <mxCell id="YHU3ZZGH8ts_Poxd3veD-48" value="offers" style="text;html=1;strokeColor=none;fillColor=none;align=center;verticalAlign=middle;whiteSpace=wrap;rounded=0;shadow=1;" vertex="1" parent="YHU3ZZGH8ts_Poxd3veD-57">
          <mxGeometry width="40" height="20" as="geometry" />
        </mxCell>
        <mxCell id="YHU3ZZGH8ts_Poxd3veD-58" value="" style="group" vertex="1" connectable="0" parent="1">
          <mxGeometry x="350" y="110" width="250" height="220" as="geometry" />
        </mxCell>
        <mxCell id="YHU3ZZGH8ts_Poxd3veD-3" value="Manufacturers" style="shape=table;startSize=30;container=1;collapsible=1;childLayout=tableLayout;fixedRows=1;rowLines=0;fontStyle=1;align=center;resizeLast=1;" vertex="1" parent="YHU3ZZGH8ts_Poxd3veD-58">
          <mxGeometry width="250" height="220" as="geometry" />
        </mxCell>
        <mxCell id="YHU3ZZGH8ts_Poxd3veD-4" value="" style="shape=partialRectangle;collapsible=0;dropTarget=0;pointerEvents=0;fillColor=none;points=[[0,0.5],[1,0.5]];portConstraint=eastwest;top=0;left=0;right=0;bottom=1;" vertex="1" parent="YHU3ZZGH8ts_Poxd3veD-3">
          <mxGeometry y="30" width="250" height="30" as="geometry" />
        </mxCell>
        <mxCell id="YHU3ZZGH8ts_Poxd3veD-5" value="PK" style="shape=partialRectangle;overflow=hidden;connectable=0;fillColor=none;top=0;left=0;bottom=0;right=0;fontStyle=1;" vertex="1" parent="YHU3ZZGH8ts_Poxd3veD-4">
          <mxGeometry width="30" height="30" as="geometry" />
        </mxCell>
        <mxCell id="YHU3ZZGH8ts_Poxd3veD-6" value="Manufacturer_code" style="shape=partialRectangle;overflow=hidden;connectable=0;fillColor=none;top=0;left=0;bottom=0;right=0;align=left;spacingLeft=6;fontStyle=5;" vertex="1" parent="YHU3ZZGH8ts_Poxd3veD-4">
          <mxGeometry x="30" width="220" height="30" as="geometry" />
        </mxCell>
        <mxCell id="YHU3ZZGH8ts_Poxd3veD-10" value="" style="shape=partialRectangle;collapsible=0;dropTarget=0;pointerEvents=0;fillColor=none;points=[[0,0.5],[1,0.5]];portConstraint=eastwest;top=0;left=0;right=0;bottom=0;" vertex="1" parent="YHU3ZZGH8ts_Poxd3veD-3">
          <mxGeometry y="60" width="250" height="30" as="geometry" />
        </mxCell>
        <mxCell id="YHU3ZZGH8ts_Poxd3veD-11" value="" style="shape=partialRectangle;overflow=hidden;connectable=0;fillColor=none;top=0;left=0;bottom=0;right=0;" vertex="1" parent="YHU3ZZGH8ts_Poxd3veD-10">
          <mxGeometry width="30" height="30" as="geometry" />
        </mxCell>
        <mxCell id="YHU3ZZGH8ts_Poxd3veD-12" value="Company_name" style="shape=partialRectangle;overflow=hidden;connectable=0;fillColor=none;top=0;left=0;bottom=0;right=0;align=left;spacingLeft=6;" vertex="1" parent="YHU3ZZGH8ts_Poxd3veD-10">
          <mxGeometry x="30" width="220" height="30" as="geometry" />
        </mxCell>
        <mxCell id="YHU3ZZGH8ts_Poxd3veD-7" value="" style="shape=partialRectangle;collapsible=0;dropTarget=0;pointerEvents=0;fillColor=none;points=[[0,0.5],[1,0.5]];portConstraint=eastwest;top=0;left=0;right=0;bottom=0;" vertex="1" parent="YHU3ZZGH8ts_Poxd3veD-3">
          <mxGeometry y="90" width="250" height="30" as="geometry" />
        </mxCell>
        <mxCell id="YHU3ZZGH8ts_Poxd3veD-8" value="" style="shape=partialRectangle;overflow=hidden;connectable=0;fillColor=none;top=0;left=0;bottom=0;right=0;" vertex="1" parent="YHU3ZZGH8ts_Poxd3veD-7">
          <mxGeometry width="30" height="30" as="geometry" />
        </mxCell>
        <mxCell id="YHU3ZZGH8ts_Poxd3veD-9" value="Address" style="shape=partialRectangle;overflow=hidden;connectable=0;fillColor=none;top=0;left=0;bottom=0;right=0;align=left;spacingLeft=6;" vertex="1" parent="YHU3ZZGH8ts_Poxd3veD-7">
          <mxGeometry x="30" width="220" height="30" as="geometry" />
        </mxCell>
        <mxCell id="YHU3ZZGH8ts_Poxd3veD-27" value="Area_code" style="shape=partialRectangle;overflow=hidden;connectable=0;fillColor=none;top=0;left=0;bottom=0;right=0;align=left;spacingLeft=6;" vertex="1" parent="YHU3ZZGH8ts_Poxd3veD-58">
          <mxGeometry x="30" y="120" width="220" height="30" as="geometry" />
        </mxCell>
        <mxCell id="YHU3ZZGH8ts_Poxd3veD-28" value="Phone_number" style="shape=partialRectangle;overflow=hidden;connectable=0;fillColor=none;top=0;left=0;bottom=0;right=0;align=left;spacingLeft=6;" vertex="1" parent="YHU3ZZGH8ts_Poxd3veD-58">
          <mxGeometry x="30" y="150" width="220" height="30" as="geometry" />
        </mxCell>
        <mxCell id="YHU3ZZGH8ts_Poxd3veD-29" value="Account_number" style="shape=partialRectangle;overflow=hidden;connectable=0;fillColor=none;top=0;left=0;bottom=0;right=0;align=left;spacingLeft=6;" vertex="1" parent="YHU3ZZGH8ts_Poxd3veD-58">
          <mxGeometry x="30" y="180" width="220" height="30" as="geometry" />
        </mxCell>
        <mxCell id="YHU3ZZGH8ts_Poxd3veD-59" value="" style="group" vertex="1" connectable="0" parent="1">
          <mxGeometry x="-380" y="110" width="250" height="150" as="geometry" />
        </mxCell>
        <mxCell id="C-vyLk0tnHw3VtMMgP7b-23" value="HW_company" style="shape=table;startSize=30;container=1;collapsible=1;childLayout=tableLayout;fixedRows=1;rowLines=0;fontStyle=1;align=center;resizeLast=1;" parent="YHU3ZZGH8ts_Poxd3veD-59" vertex="1">
          <mxGeometry width="250" height="150" as="geometry" />
        </mxCell>
        <mxCell id="C-vyLk0tnHw3VtMMgP7b-24" value="" style="shape=partialRectangle;collapsible=0;dropTarget=0;pointerEvents=0;fillColor=none;points=[[0,0.5],[1,0.5]];portConstraint=eastwest;top=0;left=0;right=0;bottom=1;" parent="C-vyLk0tnHw3VtMMgP7b-23" vertex="1">
          <mxGeometry y="30" width="250" height="30" as="geometry" />
        </mxCell>
        <mxCell id="C-vyLk0tnHw3VtMMgP7b-25" value="PK" style="shape=partialRectangle;overflow=hidden;connectable=0;fillColor=none;top=0;left=0;bottom=0;right=0;fontStyle=1;" parent="C-vyLk0tnHw3VtMMgP7b-24" vertex="1">
          <mxGeometry width="30" height="30" as="geometry" />
        </mxCell>
        <mxCell id="C-vyLk0tnHw3VtMMgP7b-26" value="Brand_name" style="shape=partialRectangle;overflow=hidden;connectable=0;fillColor=none;top=0;left=0;bottom=0;right=0;align=left;spacingLeft=6;fontStyle=5;" parent="C-vyLk0tnHw3VtMMgP7b-24" vertex="1">
          <mxGeometry x="30" width="220" height="30" as="geometry" />
        </mxCell>
        <mxCell id="C-vyLk0tnHw3VtMMgP7b-27" value="" style="shape=partialRectangle;collapsible=0;dropTarget=0;pointerEvents=0;fillColor=none;points=[[0,0.5],[1,0.5]];portConstraint=eastwest;top=0;left=0;right=0;bottom=0;" parent="C-vyLk0tnHw3VtMMgP7b-23" vertex="1">
          <mxGeometry y="60" width="250" height="30" as="geometry" />
        </mxCell>
        <mxCell id="C-vyLk0tnHw3VtMMgP7b-28" value="" style="shape=partialRectangle;overflow=hidden;connectable=0;fillColor=none;top=0;left=0;bottom=0;right=0;" parent="C-vyLk0tnHw3VtMMgP7b-27" vertex="1">
          <mxGeometry width="30" height="30" as="geometry" />
        </mxCell>
        <mxCell id="C-vyLk0tnHw3VtMMgP7b-29" value="customer_id" style="shape=partialRectangle;overflow=hidden;connectable=0;fillColor=none;top=0;left=0;bottom=0;right=0;align=left;spacingLeft=6;" parent="C-vyLk0tnHw3VtMMgP7b-27" vertex="1">
          <mxGeometry x="30" width="220" height="30" as="geometry" />
        </mxCell>
        <mxCell id="YHU3ZZGH8ts_Poxd3veD-2" value="Hw_retail_price" style="shape=partialRectangle;overflow=hidden;connectable=0;fillColor=none;top=0;left=0;bottom=0;right=0;align=left;spacingLeft=6;" vertex="1" parent="YHU3ZZGH8ts_Poxd3veD-59">
          <mxGeometry x="30" y="90" width="220" height="30" as="geometry" />
        </mxCell>
        <mxCell id="YHU3ZZGH8ts_Poxd3veD-60" value="" style="group" vertex="1" connectable="0" parent="1">
          <mxGeometry x="-80" y="130" width="40" height="20" as="geometry" />
        </mxCell>
        <mxCell id="C-vyLk0tnHw3VtMMgP7b-1" value="" style="edgeStyle=entityRelationEdgeStyle;endArrow=ERoneToMany;startArrow=ERone;endFill=0;startFill=0;entryX=0;entryY=0.5;entryDx=0;entryDy=0;" parent="YHU3ZZGH8ts_Poxd3veD-60" source="C-vyLk0tnHw3VtMMgP7b-24" target="YHU3ZZGH8ts_Poxd3veD-14" edge="1">
          <mxGeometry width="100" height="100" relative="1" as="geometry">
            <mxPoint x="420" y="590" as="sourcePoint" />
            <mxPoint x="90" y="14.999999999999886" as="targetPoint" />
          </mxGeometry>
        </mxCell>
        <mxCell id="YHU3ZZGH8ts_Poxd3veD-45" value="gets" style="text;html=1;strokeColor=none;fillColor=none;align=center;verticalAlign=middle;whiteSpace=wrap;rounded=0;shadow=1;" vertex="1" parent="YHU3ZZGH8ts_Poxd3veD-60">
          <mxGeometry width="40" height="20" as="geometry" />
        </mxCell>
        <mxCell id="YHU3ZZGH8ts_Poxd3veD-61" value="" style="group" vertex="1" connectable="0" parent="1">
          <mxGeometry x="290" y="130" width="40" height="20" as="geometry" />
        </mxCell>
        <mxCell id="YHU3ZZGH8ts_Poxd3veD-26" style="edgeStyle=orthogonalEdgeStyle;rounded=0;orthogonalLoop=1;jettySize=auto;html=1;entryX=1;entryY=0.5;entryDx=0;entryDy=0;endArrow=ERoneToMany;endFill=0;startArrow=ERone;startFill=0;" edge="1" parent="YHU3ZZGH8ts_Poxd3veD-61" source="YHU3ZZGH8ts_Poxd3veD-4" target="YHU3ZZGH8ts_Poxd3veD-14">
          <mxGeometry relative="1" as="geometry" />
        </mxCell>
        <mxCell id="YHU3ZZGH8ts_Poxd3veD-47" value="produces" style="text;html=1;strokeColor=none;fillColor=none;align=center;verticalAlign=middle;whiteSpace=wrap;rounded=0;shadow=1;" vertex="1" parent="YHU3ZZGH8ts_Poxd3veD-61">
          <mxGeometry width="40" height="20" as="geometry" />
        </mxCell>
      </root>
    </mxGraphModel>
  </diagram>
</mxfile>
